<svg xmlns="http://www.w3.org/2000/svg" width="24" height="24" viewBox="0 0 24 24" fill="none">
  <path d="M6 3.4 H15.2 L19.6 7.8 V18.8 C19.6 19.037 19.553 19.271 19.463 19.489 C19.372 19.708 19.24 19.906 19.073 20.073 C18.906 20.24 18.707 20.373 18.489 20.463 C18.27 20.554 18.036 20.6 17.8 20.6 H6 C5.7636 20.6 5.5295 20.554 5.3111 20.463 C5.0927 20.373 4.8943 20.24 4.7272 20.073 C4.56 19.906 4.4274 19.708 4.337 19.489 C4.2465 19.271 4.2 19.037 4.2 18.8 V5.2 C4.2 4.723 4.3896 4.265 4.7272 3.928 C5.0647 3.59 5.5226 3.4 6 3.4 Z" fill="none" stroke="#131722" stroke-width="1.75" stroke-linecap="round" stroke-linejoin="round"/>
  <path d="M14.8 3.6 V8 H19.4" fill="none" stroke="#131722" stroke-width="1.75" stroke-linecap="round" stroke-linejoin="round"/>
  <path d="M8.4 13 H15.6" fill="none" stroke="#131722" stroke-width="1.75" stroke-linecap="round" stroke-linejoin="round"/>
  <path d="M8.4 16.6 H13.2" fill="none" stroke="#131722" stroke-width="1.75" stroke-linecap="round" stroke-linejoin="round"/>
</svg>
